ffmpeg started on 2025-06-06 at 15:25:17
Report written to "D:\Convert\FFMetrics\reports\psnr_report-6.txt"
Log level: 32
Command line:
ffmpeg -hide_banner -nostdin -i "G:\\\xc0\xed\xe8\xec\xe5\\\xce\xed\xe3\xee\xe8\xed\xe3\xe8\\!_36_\xce\xf1\xe5\xed\xfc_2024\\DreamCast\\\xcd\xe8\xed\xe0 \xe2 \xea\xee\xf0\xee\xeb\xe5\xe2\xf1\xf2\xe2\xe5 \xe7\xe2\xb8\xe7\xe4\\[DC] Hoshi Furu Oukoku no Nina - 08_Telegram_HEVC.mkv" -i "G:\\\xc0\xed\xe8\xec\xe5\\\xce\xed\xe3\xee\xe8\xed\xe3\xe8\\!_36_\xce\xf1\xe5\xed\xfc_2024\\DreamCast\\\xcd\xe8\xed\xe0 \xe2 \xea\xee\xf0\xee\xeb\xe5\xe2\xf1\xf2\xe2\xe5 \xe7\xe2\xb8\xe7\xe4\\[DC] Hoshi Furu Oukoku no Nina - 08_Telegram.mp4" -lavfi "[0:v]settb=AVTB,setpts=PTS-STARTPTS,format=pix_fmts=yuv420p10,fps=24000/1001,scale=1920:1080:flags=bicubic[main];[1:v]settb=AVTB,setpts=PTS-STARTPTS,format=pix_fmts=yuv420p,fps=24000/1001,scale=1920:1080:flags=bicubic[ref];[main][ref]psnr=eof_action=endall:stats_file='D\\:/Convert/FFMetrics/logs/psnr_logfile-6.txt'" -f null -
Input #0, matroska,webm, from 'G:\Аниме\Онгоинги\!_36_Осень_2024\DreamCast\Нина в королевстве звёзд\[DC] Hoshi Furu Oukoku no Nina - 08_Telegram_HEVC.mkv':
  Metadata:
    COMPATIBLE_BRANDS: isomiso2avc1mp41
    MAJOR_BRAND     : isom
    MINOR_VERSION   : 512
    ENCODER         : Lavf61.7.100
  Duration: 00:23:46.69, start: -0.021000, bitrate: 810 kb/s
  Stream #0:0: Video: hevc (Main 10), yuv420p10le(tv, bt709, progressive), 1920x1080 [SAR 1:1 DAR 16:9], 23.98 fps, 23.98 tbr, 1k tbn (default)
      Metadata:
        HANDLER_NAME    : VideoHandler
        VENDOR_ID       : [0][0][0][0]
        ENCODER         : Lavc61.19.100 libx265
        BPS             : 612600
        DURATION        : 00:23:46.591708333
        NUMBER_OF_FRAMES: 34204
        NUMBER_OF_BYTES : 109241300
        _STATISTICS_WRITING_APP: mkvpropedit v66.0.0 ('Josie') 64-bit
        _STATISTICS_WRITING_DATE_UTC: 2025-06-01 13:04:47
        _STATISTICS_TAGS: BPS DURATION NUMBER_OF_FRAMES NUMBER_OF_BYTES
  Stream #0:1: Audio: aac (LC), 48000 Hz, stereo, fltp (default)
      Metadata:
        HANDLER_NAME    : SoundHandler
        VENDOR_ID       : [0][0][0][0]
        ENCODER         : Lavc61.19.100 aac
        BPS             : 194051
        DURATION        : 00:23:46.688000000
        NUMBER_OF_FRAMES: 66877
        NUMBER_OF_BYTES : 34606447
        _STATISTICS_WRITING_APP: mkvpropedit v66.0.0 ('Josie') 64-bit
        _STATISTICS_WRITING_DATE_UTC: 2025-06-01 13:04:47
        _STATISTICS_TAGS: BPS DURATION NUMBER_OF_FRAMES NUMBER_OF_BYTES
Input #1, mov,mp4,m4a,3gp,3g2,mj2, from 'G:\Аниме\Онгоинги\!_36_Осень_2024\DreamCast\Нина в королевстве звёзд\[DC] Hoshi Furu Oukoku no Nina - 08_Telegram.mp4':
  Metadata:
    major_brand     : isom
    minor_version   : 512
    compatible_brands: isomiso2avc1mp41
    encoder         : Lavf61.1.100
  Duration: 00:23:46.66, start: 0.000000, bitrate: 3829 kb/s
  Stream #1:0[0x1](und): Video: h264 (High) (avc1 / 0x31637661), yuv420p(tv, bt709, progressive), 1920x1080 [SAR 1:1 DAR 16:9], 3681 kb/s, 23.98 fps, 23.98 tbr, 24k tbn (default)
      Metadata:
        handler_name    : VideoHandler
        vendor_id       : [0][0][0][0]
        encoder         : Lavc61.3.100 h264_qsv
  Stream #1:1[0x2](und): Audio: aac (HE-AACv2) (mp4a / 0x6134706D), 48000 Hz, stereo, fltp, 144 kb/s (default)
      Metadata:
        handler_name    : SoundHandler
        vendor_id       : [0][0][0][0]
Stream mapping:
  Stream #0:0 (hevc) -> settb:default
  Stream #1:0 (h264) -> settb:default
  psnr:default -> Stream #0:0 (wrapped_avframe)
  Stream #0:1 -> #0:1 (aac (native) -> pcm_s16le (native))
Output #0, null, to 'pipe:':
  Metadata:
    COMPATIBLE_BRANDS: isomiso2avc1mp41
    MAJOR_BRAND     : isom
    MINOR_VERSION   : 512
    encoder         : Lavf61.7.100
  Stream #0:0: Video: wrapped_avframe, yuv420p10le(tv, bt709, progressive), 1920x1080 [SAR 1:1 DAR 16:9], q=2-31, 200 kb/s, 23.98 fps, 23.98 tbn
      Metadata:
        encoder         : Lavc61.19.100 wrapped_avframe
  Stream #0:1: Audio: pcm_s16le, 48000 Hz, stereo, s16, 1536 kb/s (default)
      Metadata:
        HANDLER_NAME    : SoundHandler
        VENDOR_ID       : [0][0][0][0]
        _STATISTICS_TAGS: BPS DURATION NUMBER_OF_FRAMES NUMBER_OF_BYTES
        BPS             : 194051
        DURATION        : 00:23:46.688000000
        NUMBER_OF_FRAMES: 66877
        NUMBER_OF_BYTES : 34606447
        _STATISTICS_WRITING_APP: mkvpropedit v66.0.0 ('Josie') 64-bit
        _STATISTICS_WRITING_DATE_UTC: 2025-06-01 13:04:47
        encoder         : Lavc61.19.100 pcm_s16le
frame=  161 fps=0.0 q=-0.0 size=N/A time=00:00:06.71 bitrate=N/A speed=13.3x    frame=  378 fps=368 q=-0.0 size=N/A time=00:00:15.76 bitrate=N/A speed=15.3x    frame=  623 fps=406 q=-0.0 size=N/A time=00:00:25.98 bitrate=N/A speed=16.9x    frame=  875 fps=425 q=-0.0 size=N/A time=00:00:36.49 bitrate=N/A speed=17.7x    frame= 1151 fps=446 q=-0.0 size=N/A time=00:00:48.00 bitrate=N/A speed=18.6x    frame= 1429 fps=461 q=-0.0 size=N/A time=00:00:59.60 bitrate=N/A speed=19.2x    frame= 1679 fps=463 q=-0.0 size=N/A time=00:01:10.02 bitrate=N/A speed=19.3x    frame= 1854 fps=448 q=-0.0 size=N/A time=00:01:17.32 bitrate=N/A speed=18.7x    frame= 2041 fps=438 q=-0.0 size=N/A time=00:01:25.12 bitrate=N/A speed=18.3x    frame= 2222 fps=430 q=-0.0 size=N/A time=00:01:32.67 bitrate=N/A speed=17.9x    frame= 2421 fps=427 q=-0.0 size=N/A time=00:01:40.97 bitrate=N/A speed=17.8x    frame= 2594 fps=419 q=-0.0 size=N/A time=00:01:48.19 bitrate=N/A speed=17.5x    frame= 2773 fps=413 q=-0.0 size=N/A time=00:01:55.65 bitrate=N/A speed=17.2x    frame= 2933 fps=406 q=-0.0 size=N/A time=00:02:02.33 bitrate=N/A speed=16.9x    frame= 3106 fps=401 q=-0.0 size=N/A time=00:02:09.54 bitrate=N/A speed=16.7x    frame= 3327 fps=403 q=-0.0 size=N/A time=00:02:18.76 bitrate=N/A speed=16.8x    frame= 3517 fps=401 q=-0.0 size=N/A time=00:02:26.68 bitrate=N/A speed=16.7x    frame= 3748 fps=404 q=-0.0 size=N/A time=00:02:36.32 bitrate=N/A speed=16.8x    frame= 3959 fps=404 q=-0.0 size=N/A time=00:02:45.12 bitrate=N/A speed=16.8x    frame= 4209 fps=408 q=-0.0 size=N/A time=00:02:55.55 bitrate=N/A speed=  17x    frame= 4456 fps=411 q=-0.0 size=N/A time=00:03:05.85 bitrate=N/A speed=17.1x    frame= 4676 fps=412 q=-0.0 size=N/A time=00:03:15.02 bitrate=N/A speed=17.2x    frame= 4926 fps=415 q=-0.0 size=N/A time=00:03:25.45 bitrate=N/A speed=17.3x    frame= 5193 fps=420 q=-0.0 size=N/A time=00:03:36.59 bitrate=N/A speed=17.5x    frame= 5469 fps=424 q=-0.0 size=N/A time=00:03:48.10 bitrate=N/A speed=17.7x    frame= 5742 fps=428 q=-0.0 size=N/A time=00:03:59.48 bitrate=N/A speed=17.9x    frame= 6006 fps=431 q=-0.0 size=N/A time=00:04:10.50 bitrate=N/A speed=  18x    frame= 6280 fps=434 q=-0.0 size=N/A time=00:04:21.92 bitrate=N/A speed=18.1x    frame= 6555 fps=438 q=-0.0 size=N/A time=00:04:33.39 bitrate=N/A speed=18.3x    frame= 6817 fps=440 q=-0.0 size=N/A time=00:04:44.32 bitrate=N/A speed=18.3x    frame= 7070 fps=441 q=-0.0 size=N/A time=00:04:54.87 bitrate=N/A speed=18.4x    frame= 7314 fps=442 q=-0.0 size=N/A time=00:05:05.05 bitrate=N/A speed=18.5x    frame= 7592 fps=445 q=-0.0 size=N/A time=00:05:16.64 bitrate=N/A speed=18.6x    frame= 7857 fps=447 q=-0.0 size=N/A time=00:05:27.70 bitrate=N/A speed=18.7x    frame= 8117 fps=449 q=-0.0 size=N/A time=00:05:38.54 bitrate=N/A speed=18.7x    frame= 8360 fps=449 q=-0.0 size=N/A time=00:05:48.68 bitrate=N/A speed=18.7x    frame= 8619 fps=451 q=-0.0 size=N/A time=00:05:59.48 bitrate=N/A speed=18.8x    frame= 8863 fps=451 q=-0.0 size=N/A time=00:06:09.66 bitrate=N/A speed=18.8x    frame= 9116 fps=452 q=-0.0 size=N/A time=00:06:20.21 bitrate=N/A speed=18.9x    frame= 9368 fps=453 q=-0.0 size=N/A time=00:06:30.72 bitrate=N/A speed=18.9x    frame= 9639 fps=455 q=-0.0 size=N/A time=00:06:42.02 bitrate=N/A speed=  19x    frame= 9885 fps=456 q=-0.0 size=N/A time=00:06:52.28 bitrate=N/A speed=  19x    frame=10089 fps=454 q=-0.0 size=N/A time=00:07:00.79 bitrate=N/A speed=18.9x    frame=10344 fps=455 q=-0.0 size=N/A time=00:07:11.43 bitrate=N/A speed=  19x    frame=10598 fps=456 q=-0.0 size=N/A time=00:07:22.02 bitrate=N/A speed=  19x    frame=10858 fps=457 q=-0.0 size=N/A time=00:07:32.86 bitrate=N/A speed=19.1x    frame=11131 fps=458 q=-0.0 size=N/A time=00:07:44.25 bitrate=N/A speed=19.1x    frame=11372 fps=459 q=-0.0 size=N/A time=00:07:54.30 bitrate=N/A speed=19.1x    frame=11631 fps=460 q=-0.0 size=N/A time=00:08:05.10 bitrate=N/A speed=19.2x    frame=11909 fps=461 q=-0.0 size=N/A time=00:08:16.70 bitrate=N/A speed=19.2x    frame=12172 fps=462 q=-0.0 size=N/A time=00:08:27.67 bitrate=N/A speed=19.3x    frame=12418 fps=463 q=-0.0 size=N/A time=00:08:37.93 bitrate=N/A speed=19.3x    frame=12672 fps=463 q=-0.0 size=N/A time=00:08:48.52 bitrate=N/A speed=19.3x    frame=12929 fps=464 q=-0.0 size=N/A time=00:08:59.24 bitrate=N/A speed=19.3x    frame=13187 fps=464 q=-0.0 size=N/A time=00:09:10.04 bitrate=N/A speed=19.4x    frame=13461 fps=465 q=-0.0 size=N/A time=00:09:21.43 bitrate=N/A speed=19.4x    frame=13723 fps=466 q=-0.0 size=N/A time=00:09:32.36 bitrate=N/A speed=19.5x    frame=13978 fps=467 q=-0.0 size=N/A time=00:09:42.99 bitrate=N/A speed=19.5x    frame=14214 fps=467 q=-0.0 size=N/A time=00:09:52.84 bitrate=N/A speed=19.5x    frame=14440 fps=466 q=-0.0 size=N/A time=00:10:02.26 bitrate=N/A speed=19.4x    frame=14711 fps=467 q=-0.0 size=N/A time=00:10:13.57 bitrate=N/A speed=19.5x    frame=14973 fps=468 q=-0.0 size=N/A time=00:10:24.49 bitrate=N/A speed=19.5x    frame=15163 fps=466 q=-0.0 size=N/A time=00:10:32.42 bitrate=N/A speed=19.4x    frame=15427 fps=467 q=-0.0 size=N/A time=00:10:43.43 bitrate=N/A speed=19.5x    frame=15679 fps=467 q=-0.0 size=N/A time=00:10:53.94 bitrate=N/A speed=19.5x    frame=15922 fps=467 q=-0.0 size=N/A time=00:11:04.08 bitrate=N/A speed=19.5x    frame=16137 fps=467 q=-0.0 size=N/A time=00:11:13.04 bitrate=N/A speed=19.5x    frame=16378 fps=467 q=-0.0 size=N/A time=00:11:23.09 bitrate=N/A speed=19.5x    frame=16595 fps=466 q=-0.0 size=N/A time=00:11:32.14 bitrate=N/A speed=19.4x    frame=16834 fps=466 q=-0.0 size=N/A time=00:11:42.11 bitrate=N/A speed=19.4x    frame=17053 fps=465 q=-0.0 size=N/A time=00:11:51.25 bitrate=N/A speed=19.4x    frame=17276 fps=465 q=-0.0 size=N/A time=00:12:00.55 bitrate=N/A speed=19.4x    frame=17510 fps=465 q=-0.0 size=N/A time=00:12:10.31 bitrate=N/A speed=19.4x    frame=17771 fps=465 q=-0.0 size=N/A time=00:12:21.19 bitrate=N/A speed=19.4x    frame=18031 fps=466 q=-0.0 size=N/A time=00:12:32.04 bitrate=N/A speed=19.4x    frame=18285 fps=466 q=-0.0 size=N/A time=00:12:42.63 bitrate=N/A speed=19.4x    frame=18553 fps=467 q=-0.0 size=N/A time=00:12:53.81 bitrate=N/A speed=19.5x    frame=18806 fps=467 q=-0.0 size=N/A time=00:13:04.36 bitrate=N/A speed=19.5x    frame=19054 fps=467 q=-0.0 size=N/A time=00:13:14.71 bitrate=N/A speed=19.5x    frame=19275 fps=467 q=-0.0 size=N/A time=00:13:23.92 bitrate=N/A speed=19.5x    frame=19516 fps=467 q=-0.0 size=N/A time=00:13:33.97 bitrate=N/A speed=19.5x    frame=19742 fps=466 q=-0.0 size=N/A time=00:13:43.40 bitrate=N/A speed=19.5x    frame=19994 fps=467 q=-0.0 size=N/A time=00:13:53.91 bitrate=N/A speed=19.5x    frame=20246 fps=467 q=-0.0 size=N/A time=00:14:04.42 bitrate=N/A speed=19.5x    frame=20504 fps=467 q=-0.0 size=N/A time=00:14:15.18 bitrate=N/A speed=19.5x    frame=20775 fps=468 q=-0.0 size=N/A time=00:14:26.49 bitrate=N/A speed=19.5x    frame=21033 fps=468 q=-0.0 size=N/A time=00:14:37.25 bitrate=N/A speed=19.5x    frame=21289 fps=469 q=-0.0 size=N/A time=00:14:47.92 bitrate=N/A speed=19.5x    frame=21526 fps=469 q=-0.0 size=N/A time=00:14:57.81 bitrate=N/A speed=19.5x    frame=21771 fps=469 q=-0.0 size=N/A time=00:15:08.03 bitrate=N/A speed=19.6x    frame=22015 fps=469 q=-0.0 size=N/A time=00:15:18.25 bitrate=N/A speed=19.6x    frame=22276 fps=469 q=-0.0 size=N/A time=00:15:29.09 bitrate=N/A speed=19.6x    frame=22532 fps=469 q=-0.0 size=N/A time=00:15:39.77 bitrate=N/A speed=19.6x    frame=22796 fps=470 q=-0.0 size=N/A time=00:15:50.78 bitrate=N/A speed=19.6x    frame=23073 fps=471 q=-0.0 size=N/A time=00:16:02.33 bitrate=N/A speed=19.6x    frame=23320 fps=471 q=-0.0 size=N/A time=00:16:12.63 bitrate=N/A speed=19.6x    frame=23552 fps=470 q=-0.0 size=N/A time=00:16:22.31 bitrate=N/A speed=19.6x    frame=23799 fps=471 q=-0.0 size=N/A time=00:16:32.61 bitrate=N/A speed=19.6x    frame=24075 fps=471 q=-0.0 size=N/A time=00:16:44.12 bitrate=N/A speed=19.7x    frame=24325 fps=471 q=-0.0 size=N/A time=00:16:54.55 bitrate=N/A speed=19.7x    frame=24566 fps=471 q=-0.0 size=N/A time=00:17:04.60 bitrate=N/A speed=19.7x    frame=24816 fps=472 q=-0.0 size=N/A time=00:17:15.03 bitrate=N/A speed=19.7x    frame=25052 fps=471 q=-0.0 size=N/A time=00:17:24.87 bitrate=N/A speed=19.7x    frame=25293 fps=471 q=-0.0 size=N/A time=00:17:34.92 bitrate=N/A speed=19.7x    frame=25534 fps=471 q=-0.0 size=N/A time=00:17:44.98 bitrate=N/A speed=19.7x    frame=25763 fps=471 q=-0.0 size=N/A time=00:17:54.53 bitrate=N/A speed=19.6x    frame=26010 fps=471 q=-0.0 size=N/A time=00:18:04.83 bitrate=N/A speed=19.6x    frame=26275 fps=471 q=-0.0 size=N/A time=00:18:15.88 bitrate=N/A speed=19.7x    frame=26501 fps=471 q=-0.0 size=N/A time=00:18:25.31 bitrate=N/A speed=19.7x    frame=26734 fps=471 q=-0.0 size=N/A time=00:18:35.03 bitrate=N/A speed=19.6x    frame=26993 fps=471 q=-0.0 size=N/A time=00:18:45.83 bitrate=N/A speed=19.7x    frame=27245 fps=471 q=-0.0 size=N/A time=00:18:56.34 bitrate=N/A speed=19.7x    frame=27484 fps=471 q=-0.0 size=N/A time=00:19:06.31 bitrate=N/A speed=19.7x    frame=27716 fps=471 q=-0.0 size=N/A time=00:19:15.98 bitrate=N/A speed=19.6x    frame=27987 fps=471 q=-0.0 size=N/A time=00:19:27.29 bitrate=N/A speed=19.7x    frame=28244 fps=472 q=-0.0 size=N/A time=00:19:38.01 bitrate=N/A speed=19.7x    frame=28483 fps=472 q=-0.0 size=N/A time=00:19:47.97 bitrate=N/A speed=19.7x    frame=28738 fps=472 q=-0.0 size=N/A time=00:19:58.61 bitrate=N/A speed=19.7x    frame=28952 fps=471 q=-0.0 size=N/A time=00:20:07.53 bitrate=N/A speed=19.7x    frame=29188 fps=471 q=-0.0 size=N/A time=00:20:17.38 bitrate=N/A speed=19.7x    frame=29422 fps=471 q=-0.0 size=N/A time=00:20:27.14 bitrate=N/A speed=19.7x    frame=29650 fps=471 q=-0.0 size=N/A time=00:20:36.65 bitrate=N/A speed=19.6x    frame=29899 fps=471 q=-0.0 size=N/A time=00:20:47.03 bitrate=N/A speed=19.6x    frame=30166 fps=471 q=-0.0 size=N/A time=00:20:58.17 bitrate=N/A speed=19.7x    frame=30392 fps=471 q=-0.0 size=N/A time=00:21:07.59 bitrate=N/A speed=19.7x    frame=30667 fps=472 q=-0.0 size=N/A time=00:21:19.06 bitrate=N/A speed=19.7x    frame=30913 fps=472 q=-0.0 size=N/A time=00:21:29.32 bitrate=N/A speed=19.7x    frame=31155 fps=472 q=-0.0 size=N/A time=00:21:39.42 bitrate=N/A speed=19.7x    frame=31416 fps=472 q=-0.0 size=N/A time=00:21:50.35 bitrate=N/A speed=19.7x    frame=31645 fps=472 q=-0.0 size=N/A time=00:21:59.86 bitrate=N/A speed=19.7x    frame=31875 fps=471 q=-0.0 size=N/A time=00:22:09.45 bitrate=N/A speed=19.7x    frame=32111 fps=471 q=-0.0 size=N/A time=00:22:19.29 bitrate=N/A speed=19.7x    frame=32359 fps=471 q=-0.0 size=N/A time=00:22:29.63 bitrate=N/A speed=19.7x    frame=32598 fps=471 q=-0.0 size=N/A time=00:22:39.60 bitrate=N/A speed=19.7x    frame=32826 fps=471 q=-0.0 size=N/A time=00:22:49.11 bitrate=N/A speed=19.7x    frame=33055 fps=471 q=-0.0 size=N/A time=00:22:58.66 bitrate=N/A speed=19.6x    frame=33305 fps=471 q=-0.0 size=N/A time=00:23:09.09 bitrate=N/A speed=19.6x    frame=33543 fps=471 q=-0.0 size=N/A time=00:23:19.02 bitrate=N/A speed=19.6x    frame=33775 fps=471 q=-0.0 size=N/A time=00:23:28.69 bitrate=N/A speed=19.6x    frame=34026 fps=471 q=-0.0 size=N/A time=00:23:39.16 bitrate=N/A speed=19.6x    [Parsed_psnr_10 @ 000002b88db5d240] PSNR y:49.177321 u:50.928223 v:51.076790 average:49.704669 min:42.643879 max:inf
[out#0/null @ 000002b88d5f4680] video:14697KiB audio:267508KiB subtitle:0KiB other streams:0KiB global headers:0KiB muxing overhead: unknown
frame=34204 fps=471 q=-0.0 Lsize=N/A time=00:23:46.59 bitrate=N/A speed=19.6x    
